<svg width="231" height="23" viewBox="0 0 231 23" fill="none" xmlns="http://www.w3.org/2000/svg">
<path fill-rule="evenodd" clip-rule="evenodd" d="M168.787 22.4773H168.071L168.158 22.2363L168.787 22.4773ZM178.624 5.93359L184.58 22.4773H180.17L179.153 19.505H173.919L174.99 16.4139H178.135L176.616 11.7234L178.624 5.93359Z" fill="#FFAC17"/>
<path d="M140.412 5.84814C142.115 5.84814 143.408 6.31182 144.29 7.23918C145.172 8.16648 145.613 9.52585 145.613 11.3171V17.0238C145.613 18.8151 145.172 20.1745 144.29 21.1017C143.408 22.0291 142.115 22.4928 140.412 22.4928H131.592V5.84814H140.412ZM170.853 5.85997L169.571 9.5982H167.113L169.721 17.4994L173.565 5.84814H177.975L171.982 22.4928H167.459L161.466 5.84814C164.601 5.84814 167.717 5.85997 170.853 5.85997ZM141.542 11.3171C141.542 9.89043 140.864 9.1771 139.507 9.1771H135.662V19.1638H139.507C140.864 19.1638 141.542 18.4505 141.542 17.0238V11.3171ZM160.833 22.4928H148.282V5.84814H160.833V9.1771H152.352V12.3871H159.024V15.7161H152.352V19.1638H160.833V22.4928Z" fill="#00A649"/>
<path d="M186.094 5.84811H195.593C197.176 5.84811 198.325 6.22458 199.041 6.97754C199.757 7.73056 200.116 8.93924 200.116 10.6037V12.7438C200.116 14.0594 199.908 15.0819 199.494 15.8111C199.079 16.5403 198.419 17.0238 197.515 17.2616L200.342 22.4927H195.932L193.331 17.4994H190.165V22.4927H186.094V5.84811ZM196.045 10.6037C196.045 9.65257 195.593 9.17706 194.688 9.17706H190.165V14.1704H194.688C195.593 14.1704 196.045 13.6949 196.045 12.7438V10.6037ZM210.066 22.4927H205.995V9.17706H201.246V5.84811H214.815V9.17706H210.066V22.4927ZM226.575 10.366C226.575 9.41481 226.123 8.93924 225.218 8.93924H221.374C220.469 8.93924 220.017 9.41481 220.017 10.366V17.9749C220.017 18.926 220.469 19.4016 221.374 19.4016H225.218C226.123 19.4016 226.575 18.926 226.575 17.9749V10.366ZM230.646 17.9749C230.646 19.6394 230.288 20.8481 229.572 21.6011C228.855 22.354 227.706 22.7305 226.123 22.7305H220.469C218.886 22.7305 217.736 22.354 217.02 21.6011C216.304 20.8481 215.946 19.6394 215.946 17.9749V10.366C215.946 8.70149 216.304 7.49274 217.02 6.73978C217.736 5.98683 218.886 5.61035 220.469 5.61035H226.123C227.706 5.61035 228.855 5.98683 229.572 6.73978C230.288 7.49274 230.646 8.70149 230.646 10.366V17.9749Z" fill="#FFAC17"/>
<path fill-rule="evenodd" clip-rule="evenodd" d="M179.812 0.531738L178.494 3.85668H131.572V0.531738H179.812Z" fill="#00A649"/>
<path fill-rule="evenodd" clip-rule="evenodd" d="M230.447 3.85668H179.225L180.543 0.531738H230.447V3.85668Z" fill="#FFAC17"/>
<path d="M0.98 17H2.009V13.171H4.872C5.061 13.171 5.327 13.157 5.579 13.115C7.147 12.877 8.036 11.617 8.036 10.049C8.036 8.474 7.154 7.221 5.579 6.976C5.327 6.934 5.068 6.92 4.872 6.92H0.98V17ZM2.009 12.191V7.907H4.844C5.012 7.907 5.257 7.921 5.467 7.963C6.503 8.187 6.979 9.111 6.979 10.049C6.979 10.987 6.503 11.911 5.467 12.128C5.257 12.177 5.012 12.191 4.844 12.191H2.009ZM15.1622 10.742C14.7632 9.762 13.7552 9.23 12.3762 9.23C10.7102 9.23 9.64622 10.014 9.29622 11.365L10.2972 11.659C10.5842 10.651 11.3262 10.203 12.3622 10.203C13.7972 10.203 14.3642 10.861 14.3782 12.226C13.3702 12.366 11.9562 12.527 10.9342 12.772C9.80722 13.073 9.00922 13.731 9.00922 14.97C9.00922 16.174 9.87722 17.21 11.5922 17.21C12.8802 17.21 13.8812 16.706 14.4692 15.747V17H15.3862V12.303C15.3862 11.743 15.3442 11.183 15.1622 10.742ZM11.7112 16.321C10.4932 16.321 10.0382 15.628 10.0382 14.97C10.0382 14.151 10.7032 13.787 11.3472 13.598C12.1802 13.367 13.3702 13.248 14.3642 13.129C14.3642 13.472 14.3502 13.962 14.2662 14.333C14.0702 15.474 13.1532 16.321 11.7112 16.321ZM21.7585 13.052C22.2765 12.66 22.5635 12.114 22.5635 11.407C22.5635 10.035 21.4155 9.23 19.9595 9.23C18.7275 9.23 17.7055 9.678 16.9495 10.504L17.6075 11.197C18.1535 10.623 18.9865 10.21 19.8825 10.21C20.7715 10.21 21.5065 10.616 21.5065 11.477C21.5065 12.296 20.8135 12.653 19.7635 12.653H18.8815V13.535H19.7775C21.0655 13.535 21.7095 13.857 21.7095 14.781C21.7095 15.677 20.9815 16.223 19.8685 16.223C18.8045 16.223 17.9785 15.726 17.4255 14.795L16.5995 15.32C17.2505 16.51 18.4055 17.21 19.9315 17.21C21.5275 17.21 22.7595 16.321 22.7595 14.879C22.7595 14.151 22.4375 13.388 21.7585 13.052ZM27.7412 9.23C26.6212 9.23 25.7742 9.699 25.2212 10.483V9.44H24.2972V20.36H25.3332V16.097C25.8792 16.79 26.6772 17.21 27.6992 17.21C29.8202 17.21 31.0522 15.481 31.0522 13.213C31.0522 10.959 29.8132 9.23 27.7412 9.23ZM27.5942 16.251C25.9842 16.251 25.2212 14.963 25.2212 13.213C25.2212 11.435 25.9982 10.189 27.5732 10.189C29.1972 10.189 29.9602 11.505 29.9602 13.213C29.9602 14.935 29.1692 16.251 27.5942 16.251ZM38.3224 10.742C37.9234 9.762 36.9154 9.23 35.5364 9.23C33.8704 9.23 32.8064 10.014 32.4564 11.365L33.4574 11.659C33.7444 10.651 34.4864 10.203 35.5224 10.203C36.9574 10.203 37.5244 10.861 37.5384 12.226C36.5304 12.366 35.1164 12.527 34.0944 12.772C32.9674 13.073 32.1694 13.731 32.1694 14.97C32.1694 16.174 33.0374 17.21 34.7524 17.21C36.0404 17.21 37.0414 16.706 37.6294 15.747V17H38.5464V12.303C38.5464 11.743 38.5044 11.183 38.3224 10.742ZM34.8714 16.321C33.6534 16.321 33.1984 15.628 33.1984 14.97C33.1984 14.151 33.8634 13.787 34.5074 13.598C35.3404 13.367 36.5304 13.248 37.5244 13.129C37.5244 13.472 37.5104 13.962 37.4264 14.333C37.2304 15.474 36.3134 16.321 34.8714 16.321ZM43.3997 17.217C45.6047 17.224 46.9907 15.747 46.9907 13.493C46.9907 11.33 45.7307 9.811 43.6937 9.811C42.5737 9.811 41.5587 10.273 40.9847 11.176C41.0827 9.979 41.4747 9.013 42.2307 8.551C43.2247 7.907 45.2127 7.851 46.2347 7.641L46.1227 6.71C44.7647 6.983 42.8607 6.983 41.7057 7.76C41.1107 8.145 40.6347 8.775 40.3967 9.468C40.1097 10.259 39.9207 11.953 39.9627 13.143C40.0327 15.845 41.2787 17.203 43.3997 17.217ZM43.4767 16.23C41.9017 16.23 41.0547 15.201 41.0547 13.514C41.0547 11.834 41.9087 10.798 43.4627 10.798C45.0097 10.798 45.9057 11.834 45.9057 13.514C45.9057 15.159 45.0657 16.23 43.4767 16.23ZM51.6878 17.21C53.9278 17.21 55.2718 15.593 55.2718 13.213C55.2718 10.875 53.9558 9.23 51.6878 9.23C49.4758 9.23 48.1108 10.833 48.1108 13.213C48.1108 15.558 49.4338 17.21 51.6878 17.21ZM51.6878 16.223C50.0498 16.223 49.2028 15.033 49.2028 13.213C49.2028 11.449 49.9938 10.217 51.6878 10.217C53.3538 10.217 54.1798 11.393 54.1798 13.213C54.1798 14.998 53.3678 16.223 51.6878 16.223ZM58.6755 17H59.7045V10.392H62.3855V9.44H55.9945V10.392H58.6755V17ZM63.7132 17H64.7562V13.36L68.4662 17H69.9642L65.9602 13.22L69.5022 9.44H68.1302L64.7562 13.08V9.44H63.7202L63.7132 17ZM76.3985 10.742C75.9995 9.762 74.9915 9.23 73.6125 9.23C71.9465 9.23 70.8825 10.014 70.5325 11.365L71.5335 11.659C71.8205 10.651 72.5625 10.203 73.5985 10.203C75.0335 10.203 75.6005 10.861 75.6145 12.226C74.6065 12.366 73.1925 12.527 72.1705 12.772C71.0435 13.073 70.2455 13.731 70.2455 14.97C70.2455 16.174 71.1135 17.21 72.8285 17.21C74.1165 17.21 75.1175 16.706 75.7055 15.747V17H76.6225V12.303C76.6225 11.743 76.5805 11.183 76.3985 10.742ZM72.9475 16.321C71.7295 16.321 71.2745 15.628 71.2745 14.97C71.2745 14.151 71.9395 13.787 72.5835 13.598C73.4165 13.367 74.6065 13.248 75.6005 13.129C75.6005 13.472 75.5865 13.962 75.5025 14.333C75.3065 15.474 74.3895 16.321 72.9475 16.321ZM84.3836 17.21C85.8816 17.21 86.9876 16.489 87.5546 15.145L86.5186 14.837C86.1406 15.747 85.4056 16.223 84.3836 16.223C82.7596 16.223 81.9406 15.033 81.9196 13.22C81.9406 11.456 82.7106 10.217 84.3836 10.217C85.3706 10.217 86.1896 10.742 86.5466 11.645L87.5546 11.323C87.1346 10.028 85.9166 9.23 84.3906 9.23C82.1296 9.23 80.8556 10.84 80.8276 13.22C80.8556 15.551 82.0946 17.21 84.3836 17.21ZM94.6778 10.742C94.2788 9.762 93.2708 9.23 91.8918 9.23C90.2258 9.23 89.1618 10.014 88.8118 11.365L89.8128 11.659C90.0998 10.651 90.8418 10.203 91.8778 10.203C93.3128 10.203 93.8798 10.861 93.8938 12.226C92.8858 12.366 91.4718 12.527 90.4498 12.772C89.3228 13.073 88.5248 13.731 88.5248 14.97C88.5248 16.174 89.3928 17.21 91.1078 17.21C92.3958 17.21 93.3968 16.706 93.9848 15.747V17H94.9018V12.303C94.9018 11.743 94.8598 11.183 94.6778 10.742ZM91.2268 16.321C90.0088 16.321 89.5538 15.628 89.5538 14.97C89.5538 14.151 90.2188 13.787 90.8628 13.598C91.6958 13.367 92.8858 13.248 93.8798 13.129C93.8798 13.472 93.8658 13.962 93.7818 14.333C93.5858 15.474 92.6688 16.321 91.2268 16.321ZM99.8601 8.544C100.861 8.544 101.666 7.739 101.666 6.738H100.812C100.812 7.263 100.392 7.69 99.8601 7.69C99.3351 7.69 98.9081 7.263 98.9081 6.738H98.0541C98.0541 7.739 98.8591 8.544 99.8601 8.544ZM102.73 9.44H101.869L97.7181 15.278V9.44H96.7171V17H97.5851L101.729 11.113V17H102.73V9.44ZM106.746 17H107.775V10.392H110.456V9.44H104.065V10.392H106.746V17ZM117.25 10.742C116.851 9.762 115.843 9.23 114.464 9.23C112.798 9.23 111.734 10.014 111.384 11.365L112.385 11.659C112.672 10.651 113.414 10.203 114.45 10.203C115.885 10.203 116.452 10.861 116.466 12.226C115.458 12.366 114.044 12.527 113.022 12.772C111.895 13.073 111.097 13.731 111.097 14.97C111.097 16.174 111.965 17.21 113.68 17.21C114.968 17.21 115.969 16.706 116.557 15.747V17H117.474V12.303C117.474 11.743 117.432 11.183 117.25 10.742ZM113.799 16.321C112.581 16.321 112.126 15.628 112.126 14.97C112.126 14.151 112.791 13.787 113.435 13.598C114.268 13.367 115.458 13.248 116.452 13.129C116.452 13.472 116.438 13.962 116.354 14.333C116.158 15.474 115.241 16.321 113.799 16.321Z" fill="#2F4237"/>
</svg>
