<svg width="120" height="13" viewBox="0 0 120 13" fill="none" xmlns="http://www.w3.org/2000/svg">
<path d="M27.6097 5.26182C33.8952 5.62067 40.1591 5.5677 46.4532 5.59573C49.6913 5.61874 52.9222 5.50447 56.1546 5.41766C73.0425 5.00062 89.9276 5.02421 106.784 4.00316C110.32 3.79029 113.837 3.68859 117.376 3.53063C117.789 3.50897 118.227 3.45851 118.634 3.32704C119.323 3.12577 119.604 2.56043 119.594 1.8727C119.584 1.18498 119.247 0.67958 118.611 0.410058C118.135 0.214781 117.673 0.294052 117.208 0.318413C110.027 0.667205 102.824 1.07226 95.64 1.36614C82.5656 1.91369 69.4624 1.91214 56.3708 2.13023C55.2847 2.15962 54.1943 2.10665 53.1413 2.27196C49.8802 2.80075 46.685 1.61923 43.4325 1.81721C38.8903 2.11032 34.3064 2.10278 29.7483 2.09388C23.559 2.08789 17.3869 1.91581 11.2449 1.82475C8.36829 1.78279 5.47594 1.93437 2.58791 2.16832C2.25219 2.18591 1.92223 2.31333 1.59083 2.41329C0.699921 2.70775 0.00273357 3.23983 0.111936 4.33532C0.249842 5.48436 1.05479 6.02031 2.03612 5.96888C5.99159 5.84417 9.82528 6.85459 13.7277 7.20068C17.1883 7.51486 20.656 7.96632 24.0994 8.44659C20.7852 8.45509 17.4955 8.43479 14.1813 8.4433C11.9805 8.44852 9.78249 8.50865 7.58453 8.56878C6.26604 8.61035 5.67647 9.21938 5.75984 10.3162C5.87912 11.6039 6.71989 11.8351 7.70122 11.7837C11.5261 11.6383 15.3725 11.4092 19.2104 11.5109C25.2018 11.6924 31.1687 11.9028 37.1357 12.1132C41.3394 12.2783 45.5733 12.5244 49.7741 12.6346C60.3308 12.9623 70.8772 12.6023 81.4323 12.407C89.7895 12.2719 98.1509 12.2191 106.487 11.6721C107.184 11.6356 107.884 11.654 108.283 10.8622C108.798 9.81663 108.271 8.66043 107.099 8.52915C105.51 8.36461 103.928 8.3099 102.321 8.28399C95.0126 8.17146 87.6813 8.1152 80.3714 7.97522C73.9683 7.84278 67.558 7.57306 61.129 7.44197C56.3845 7.33273 51.6671 7.2496 46.9168 7.03054C41.4132 6.76836 35.9254 6.31265 30.4347 5.80203C29.3156 5.69549 28.1979 5.61642 27.0803 5.53734C26.3629 5.18951 25.591 5.28502 24.8392 5.26936C25.7962 5.24674 26.7058 5.30919 27.6097 5.26182Z" fill="#FFAC17"/>
<path d="M27.6097 5.26182C26.6541 4.81636 25.7158 5.19589 24.7618 5.27342C25.5623 5.23147 26.3142 5.74267 27.1319 5.53463C27.2826 5.44415 27.4332 5.35366 27.6097 5.26182Z" fill="#FFAC17"/>
</svg>
