<svg width="100" height="125" viewBox="0 0 100 125" fill="none" xmlns="http://www.w3.org/2000/svg">
<path fill-rule="evenodd" clip-rule="evenodd" d="M85.3469 49.8634C85.3469 69.336 69.5178 85.1222 49.9924 85.1222C30.4663 85.1222 14.6357 69.336 14.6357 49.8634C14.6357 30.3903 30.4663 14.603 49.9924 14.603C69.5178 14.603 85.3469 30.3903 85.3469 49.8634Z" fill="#009C45"/>
<path fill-rule="evenodd" clip-rule="evenodd" d="M16.9749 49.7849C16.9749 31.5993 31.7573 16.8569 49.9915 16.8569C68.2268 16.8569 83.0082 31.5993 83.0082 49.7849C83.0082 67.9727 68.2268 82.7118 49.9915 82.7118C31.7573 82.7118 16.9749 67.9727 16.9749 49.7849Z" fill="white"/>
<path fill-rule="evenodd" clip-rule="evenodd" d="M81.2417 49.7847C81.2417 66.9962 67.2502 80.9523 49.9915 80.9523C32.7329 80.9523 18.741 66.9962 18.741 49.7847C18.741 32.5735 32.7329 18.6191 49.9915 18.6191C67.2502 18.6191 81.2417 32.5735 81.2417 49.7847Z" fill="white"/>
<path fill-rule="evenodd" clip-rule="evenodd" d="M51.4565 68.5305C55.6291 64.5036 60.0457 61.3938 65.4164 59.1381C69.9032 57.2519 75.5494 55.7297 80.4116 55.7995C75.6528 54.3813 67.7661 55.7995 62.7139 57.4498C56.8331 59.3666 51.4398 62.7266 46.9156 66.3755C43.5276 69.1131 38.9762 73.2811 35.7527 77.6261C37.6285 78.5699 39.6127 79.3297 41.6815 79.8844C44.6571 75.8847 48.0847 71.7777 51.4565 68.5305Z" fill="#009C45"/>
<path fill-rule="evenodd" clip-rule="evenodd" d="M42.5296 64.0632C48.437 59.9807 54.2697 57.6289 61.2374 55.949C65.4963 54.9249 70.0933 54.2892 74.1134 54.4474C69.724 53.3545 62.7996 53.9883 57.8365 54.9029C51.8357 56.0117 44.9928 58.2546 38.2932 62.1616C34.5184 64.3622 30.3494 67.3624 26.6704 70.7333C27.859 72.0382 29.1572 73.242 30.5501 74.3306C33.9488 71.0079 37.6951 67.3992 42.5296 64.0632Z" fill="#009C45"/>
<path fill-rule="evenodd" clip-rule="evenodd" d="M35.3129 59.953C42.3113 56.4285 49.0627 54.7024 55.9978 53.7876C59.549 53.3198 63.2674 52.9785 66.9404 53.1136C62.561 52.5935 57.7874 52.529 53.6956 52.8044C48.221 53.1681 38.7754 55.1324 33.5037 57.439C29.8514 59.0377 25.4657 61.1679 21.8765 63.7722C22.4801 64.9687 23.1573 66.122 23.9048 67.2241C27.8223 64.1995 31.6046 61.8191 35.3129 59.953Z" fill="#009C45"/>
<path fill-rule="evenodd" clip-rule="evenodd" d="M32.5158 55.3126C37.7958 53.5913 45.4595 51.9202 53.3666 51.8088C44.1361 51.1425 34.9066 52.6885 31.1731 53.6364C26.812 54.7495 22.7773 56.1655 19.5715 57.6849C19.8062 58.5803 20.0801 59.4594 20.3906 60.3213C24.0726 58.3954 28.3785 56.6665 32.5158 55.3126Z" fill="#009C45"/>
<path fill-rule="evenodd" clip-rule="evenodd" d="M73.5669 63.785C71.6114 65.9259 69.788 68.3936 67.8648 71.6206C66.8764 73.2762 66.1122 75.0132 65.4285 76.783C72.2298 72.86 77.4097 66.4536 79.7255 58.8081C77.409 60.0837 75.3097 61.874 73.5669 63.785Z" fill="#009C45"/>
<path fill-rule="evenodd" clip-rule="evenodd" d="M67.7909 60.7988C63.4825 63.2706 60.0534 66.5429 56.8366 70.3127C54.3436 73.2366 52.0504 76.7221 49.5457 80.9397C51.9885 80.9017 54.3669 80.6175 56.6601 80.1032C58.7176 76.465 60.6634 73.3277 62.6461 70.6325C65.0933 67.3106 68.0404 64.2634 70.9141 62.0031C73.4182 60.0366 76.7336 58.2041 80.1628 57.2086C80.2114 57.0105 80.2585 56.8118 80.3033 56.6123C76.0224 56.9584 71.6791 58.5709 67.7909 60.7988Z" fill="#009C45"/>
<path fill-rule="evenodd" clip-rule="evenodd" d="M59.8492 50.5399L22.5737 34.7769C21.8303 36.1233 21.1836 37.5302 20.6431 38.9886L55.4497 50.2533C56.9335 50.3172 58.4024 50.4089 59.8492 50.5399Z" fill="#F9AB03"/>
<path fill-rule="evenodd" clip-rule="evenodd" d="M60.7016 50.6269C68.0119 51.3564 74.8029 52.9342 80.7501 55.1711C81.0558 53.4215 81.2165 51.6221 81.2165 49.7852C81.2165 49.5866 81.2125 49.3887 81.2089 49.1909L81.1358 49.2367L80.5608 48.4028L81.1611 47.9509C81.1348 47.4975 81.1005 47.0461 81.0549 46.5981L79.9146 47.6232L79.2042 46.9008L80.8675 45.1195C80.7856 44.575 80.6903 44.0351 80.5805 43.5L78.4321 46.2454L77.6064 45.6577L80.1605 41.731C79.986 41.0789 79.7927 40.4342 79.5776 39.7996L76.731 45.1439L75.8162 44.7082L78.7873 37.7196C78.4688 36.9639 78.1209 36.2235 77.7459 35.4996L74.8646 44.3538L73.8893 44.0841L76.4099 33.1743C75.8879 32.3495 75.3281 31.5513 74.7329 30.781L72.8892 43.8996L71.8818 43.8033L72.6857 28.3888C71.9125 27.5724 71.0951 26.7981 70.2381 26.0687L70.8661 43.7947L69.8541 43.8745L67.3885 23.9096C66.3509 23.2133 65.2691 22.5774 64.1483 22.0071L68.8538 44.0418L67.8714 44.2954L60.5542 20.4556C59.2991 20.0048 58.0062 19.6331 56.6825 19.3437L66.9389 44.6309L66.0146 45.0513L52.5517 18.7266C51.699 18.6566 50.8371 18.6196 49.9663 18.6196C49.3987 18.6196 48.8351 18.6358 48.2752 18.6655L65.132 45.5499L64.2981 46.123L43.9405 19.2008C42.4724 19.4869 41.0416 19.8755 39.6549 20.3587L63.5152 46.7674L62.7917 47.4763L35.5276 22.1409C34.1792 22.8427 32.8889 23.6399 31.665 24.5233L62.1319 48.2451L61.5433 49.0673L28.1598 27.4651C27.0586 28.5351 26.0367 29.6856 25.1028 30.9067L61.0284 49.9405L60.7016 50.6269Z" fill="#F9AB03"/>
<path fill-rule="evenodd" clip-rule="evenodd" d="M48.7345 50.1951L19.3639 43.4443C19.0539 44.9392 18.8525 46.4735 18.7656 48.0381L39.4477 50.9306C42.4556 50.5385 45.5561 50.2834 48.7345 50.1951Z" fill="#F9AB03"/>
<path fill-rule="evenodd" clip-rule="evenodd" d="M28.2729 53.1485L18.8494 52.6592C18.9606 53.8709 19.1404 55.0624 19.3866 56.2301C22.1501 55.0464 25.123 54.0106 28.2729 53.1485Z" fill="#F9AB03"/>
<path fill-rule="evenodd" clip-rule="evenodd" d="M15.5789 78.7043C15.9527 78.3566 16.3973 78.1911 16.9127 78.2077C17.4255 78.2243 17.8574 78.4202 18.2099 78.7972C18.5623 79.1741 18.7283 79.6176 18.709 80.1288C18.6897 80.6428 18.4931 81.0735 18.1193 81.4212C17.7414 81.7727 17.2968 81.9382 16.7827 81.9203C16.2714 81.9025 15.8395 81.7064 15.487 81.3295C15.1345 80.9525 14.9685 80.5092 14.9864 79.9992C15.0044 79.4866 15.2009 79.0558 15.5789 78.7043ZM11.2319 66.9478L12.6918 69.8053L14.2363 69.5157L15.5455 72.0785L5.84792 73.1641L4.45069 70.4293L11.0305 63.2411L12.3717 65.8662L11.2319 66.9478ZM9.7398 68.3677L7.27253 70.7523L10.6542 70.1575L9.7398 68.3677ZM2.61839 56.6407L3.53684 60.95L10.2773 59.5211L10.8632 62.2702L1.92793 64.1644L0.423559 57.1059L2.61839 56.6407ZM0.0828651 54.1473L0.000965598 49.4687C-0.016863 48.4508 0.212169 47.6831 0.690304 47.1677C1.16628 46.6524 1.8551 46.3859 2.75035 46.3703C3.67326 46.3542 4.39898 46.6173 4.9276 47.1618C5.4561 47.7064 5.73032 48.5459 5.7502 49.6805L5.77714 51.2202L9.16682 51.1613L9.2163 53.9883L0.0828651 54.1473ZM3.92708 51.2524L3.91502 50.5632C3.90549 50.0203 3.80525 49.6422 3.61214 49.425C3.41906 49.2099 3.17473 49.1038 2.88121 49.1089C2.59415 49.1139 2.35129 49.2136 2.1569 49.408C1.96022 49.6001 1.86656 49.9603 1.87579 50.4863L1.8898 51.2879L3.92708 51.2524ZM4.68985 44.0325C3.23714 43.698 2.19945 43.0324 1.57775 42.0403C0.954536 41.0456 0.810745 39.8283 1.14422 38.3878C1.48632 36.91 2.14785 35.8628 3.12878 35.2463C4.10711 34.6312 5.31484 34.487 6.7469 34.8167C7.78719 35.0562 8.60033 35.4285 9.18471 35.9309C9.76905 36.4334 10.1704 37.057 10.3887 37.8016C10.6066 38.5484 10.6011 39.4114 10.3729 40.3972C10.1413 41.3975 9.78987 42.1896 9.31856 42.7733C8.84572 43.3545 8.21709 43.7693 7.43024 44.0191C6.64377 44.2669 5.73013 44.2721 4.68985 44.0325ZM5.33767 41.2907C6.23705 41.4978 6.91988 41.4808 7.39066 41.2388C7.85931 40.9962 8.16142 40.5868 8.29399 40.0143C8.43031 39.4254 8.34334 38.9242 8.03465 38.5135C7.72376 38.1023 7.07149 37.7802 6.07672 37.5511C5.23747 37.3579 4.5869 37.3867 4.12134 37.6343C3.65793 37.8824 3.35945 38.2948 3.22549 38.8735C3.0977 39.4253 3.18967 39.9145 3.50589 40.34C3.82013 40.765 4.43205 41.0822 5.33767 41.2907ZM16.014 26.7824L14.692 29.262L8.60755 26.0356L7.15073 28.7681L13.2351 31.9945L11.9121 34.4761L3.84653 30.1991L7.94839 22.5054L16.014 26.7824ZM10.3219 19.3474L13.4001 15.816C14.0698 15.0475 14.7552 14.6299 15.4562 14.566C16.1557 14.5006 16.8464 14.7622 17.5221 15.348C18.2188 15.952 18.5816 16.6318 18.6091 17.3892C18.6365 18.1466 18.277 18.9535 17.5305 19.8099L16.5175 20.9722L19.0761 23.1903L17.2161 25.3242L10.3219 19.3474ZM15.121 19.7615L15.5745 19.2412C15.9317 18.8314 16.1108 18.4836 16.1131 18.1933C16.1139 17.9045 16.0035 17.6626 15.782 17.4706C15.5653 17.2827 15.3179 17.1947 15.043 17.2094C14.768 17.221 14.4567 17.4262 14.1107 17.8232L13.5832 18.4283L15.121 19.7615ZM20.709 14.7278C19.9189 13.4668 19.6571 12.2643 19.9209 11.1244C20.1855 9.98159 20.9469 9.01939 22.2041 8.23589C23.4937 7.43223 24.7039 7.15828 25.8348 7.41406C26.9626 7.66911 27.9189 8.41879 28.6978 9.66181C29.2635 10.5647 29.5746 11.4014 29.6315 12.1689C29.6885 12.9362 29.5301 13.6602 29.1565 14.3408C28.7811 15.0224 28.1653 15.6287 27.3049 16.1649C26.432 16.7089 25.6219 17.0211 24.8748 17.1016C24.1283 17.1791 23.3898 17.029 22.6562 16.6508C21.9245 16.2714 21.2748 15.6308 20.709 14.7278ZM23.111 13.2459C23.6002 14.0265 24.095 14.4961 24.5995 14.6569C25.1029 14.8158 25.6068 14.7394 26.1065 14.4281C26.6205 14.1078 26.9143 13.692 26.9871 13.184C27.0589 12.674 26.8261 11.9862 26.2851 11.1228C25.8286 10.3942 25.3482 9.95582 24.8435 9.80256C24.3398 9.65125 23.8364 9.73233 23.3314 10.0471C22.8497 10.3472 22.5679 10.758 22.4899 11.2818C22.4107 11.804 22.6185 12.4598 23.111 13.2459ZM29.6439 4.09477L33.1757 2.95032L36.2564 7.77977L35.8963 2.06869L39.4159 0.928231L42.2387 9.59251L40.0461 10.3031L37.8936 3.69638L38.3449 10.8543L36.3606 11.4973L32.5131 5.43994L34.6655 12.0466L32.4668 12.7591L29.6439 4.09477ZM47.003 3.55896L48.5108 3.58525C49.8929 3.6093 50.9137 3.87104 51.575 4.37048C52.2343 4.86774 52.5548 5.63075 52.5369 6.65716C52.5221 7.49913 52.2047 8.13639 51.5844 8.57112C50.9642 9.00578 50.0821 9.21318 48.9359 9.19325L44.0874 9.10886L44.2467 0L47.0645 0.0490362L47.003 3.55896ZM46.9393 7.20042L48.3832 7.22553C49.2679 7.24095 49.7157 6.93051 49.7269 6.29213C49.7367 5.73226 49.2993 5.44458 48.4146 5.4292L46.9707 5.40403L46.9393 7.20042ZM53.342 0.158348L56.1703 0.207591L56.0109 9.31638L53.1825 9.26716L53.342 0.158348ZM69.6639 13.5531L57.9764 9.76584L60.7992 1.10148L63.4794 1.96999L61.3499 8.5061L63.1562 9.09139L65.2856 2.55532L67.9699 3.42512L65.8405 9.96122L67.6731 10.5551L69.8025 4.01895L72.4868 4.88881L69.6639 13.5531ZM77.6966 20.038L75.4725 18.3051L79.715 12.8896L77.9753 11.534L76.2456 13.742C75.5346 14.6496 74.9652 15.28 74.5341 15.6305C74.103 15.981 73.6336 16.1185 73.1224 16.0406C72.6113 15.9626 71.9595 15.6163 71.1668 14.9986C70.9238 14.8093 70.6665 14.5657 70.3937 14.2698L71.5329 12.8156L71.8664 13.0754C72.1681 13.3105 72.4333 13.4095 72.6608 13.3741C72.8882 13.3387 73.1401 13.1446 73.4164 12.7919L77.1378 8.04163L83.3206 12.8591L77.6966 20.038ZM86.2501 15.6609L91.0097 21.5226L89.494 22.7467L86.5145 19.0773L85.3856 19.989L88.1496 23.393L86.7017 24.5623L83.9377 21.1584L82.5394 22.2876L85.6058 26.0642L83.9976 27.363L79.1509 21.3941L86.2501 15.6609ZM93.1428 24.806L94.3356 27.3571L91.4384 28.7043L92.7427 31.4937L95.6398 30.1464L96.838 32.709L88.559 36.5591L87.3608 33.9966L90.7091 32.4395L89.4048 29.6501L86.0566 31.2072L84.8638 28.6562L93.1428 24.806ZM97.9885 36.6613L98.527 39.4243L95.3892 40.0326L95.978 43.0538L99.1159 42.4455L99.6569 45.221L90.6898 46.9593L90.1489 44.1838L93.7754 43.4808L93.1865 40.4595L89.56 41.1626L89.0215 38.3995L97.9885 36.6613ZM96.1629 52.3178L95.9791 53.8105C95.8106 55.1789 95.4429 56.1639 94.8757 56.7677C94.3109 57.3696 93.5166 57.6077 92.4949 57.4826C91.6568 57.38 91.0545 56.9986 90.6858 56.3379C90.3172 55.6773 90.2025 54.7807 90.3423 53.646L90.9332 48.8458L100 49.956L99.6566 52.7456L96.1629 52.3178ZM92.5382 51.8739L92.3623 53.3035C92.2544 54.1793 92.5172 54.6559 93.1526 54.7337C93.7099 54.802 94.0425 54.3982 94.1503 53.5224L94.3263 52.0929L92.5382 51.8739ZM98.8914 58.9605L98.5467 61.7606L89.4799 60.6503L89.8247 57.8502L98.8914 58.9605ZM93.5689 74.176L85.2238 70.4706L86.3034 68.0523L90.8849 70.0866L87.6953 64.9345L88.7775 62.5104L97.1226 66.2158L96.0404 68.6399L91.4239 66.59L94.6407 71.7752L93.5689 74.176ZM96.4663 73.2034C96.0219 72.9109 95.7401 72.5095 95.6144 71.9985C95.4905 71.4885 95.5452 70.9694 95.7796 70.4443C96.0133 69.9211 96.3625 69.5352 96.831 69.2835C97.2968 69.0329 97.7836 68.9751 98.2934 69.1109L97.8522 70.0992C97.3052 70.0467 96.915 70.2844 96.678 70.8154C96.4245 71.3831 96.5007 71.8488 96.9075 72.2152L96.4663 73.2034ZM82.2274 80.8046C81.8359 80.477 81.617 80.0571 81.5707 79.5449C81.5247 79.0353 81.6671 78.5839 81.9994 78.189C82.3315 77.7942 82.7526 77.5758 83.2637 77.5327C83.7776 77.4891 84.2303 77.6312 84.6219 77.9589C85.0177 78.2902 85.2366 78.7101 85.2814 79.2211C85.326 79.7294 85.1836 80.1809 84.8514 80.5757C84.5192 80.9706 84.0981 81.1888 83.5884 81.2334C83.0761 81.278 82.6234 81.136 82.2274 80.8046Z" fill="#009C45"/>
<path fill-rule="evenodd" clip-rule="evenodd" d="M40.1686 97.5936H37.3526V90.7212H34.2495V97.5936H31.4314V88.4834H40.1686V97.5936ZM47.67 96.0898H44.4542L44.0118 97.5936H41.1278L44.5605 88.4834H47.6381L51.073 97.5936H48.1188L47.67 96.0898ZM47.0787 94.1192L46.0685 90.8443L45.0646 94.1192H47.0787ZM51.9641 88.4834H56.656C57.6769 88.4834 58.4425 88.7252 58.9508 89.211C59.4592 89.6946 59.7144 90.3861 59.7144 91.279C59.7144 92.1996 59.4379 92.9187 58.8829 93.4363C58.3277 93.9538 57.4812 94.2126 56.3434 94.2126H54.7992V97.5936H51.9641V88.4834ZM54.7992 92.3672H55.4905C56.035 92.3672 56.4157 92.2739 56.6368 92.0851C56.8559 91.8963 56.9665 91.6545 56.9665 91.3618C56.9665 91.0754 56.8708 90.8315 56.6794 90.6343C56.4901 90.4348 56.1307 90.3351 55.6032 90.3351H54.7992V92.3672ZM69.498 97.5936H66.3205L65.223 95.2392C64.9614 94.6834 64.7572 94.3356 64.6126 94.1977C64.4658 94.0578 64.2659 93.9899 64.0086 93.9899V97.5936H61.1905V88.4834H64.0086V91.9811C64.2531 91.9706 64.4446 91.8836 64.5807 91.7203C64.7189 91.559 64.9316 91.0967 65.223 90.3288C65.4357 89.7625 65.6484 89.3552 65.8653 89.1091C66.0802 88.861 66.431 88.6849 66.9181 88.5768C67.403 88.4686 68.1666 88.4155 69.2045 88.4155V90.3415H69.062C68.5792 90.3415 68.2219 90.4327 67.9901 90.6151C67.7561 90.7975 67.5668 91.0924 67.4158 91.4997C67.267 91.909 67.1053 92.2124 66.933 92.4138C66.7607 92.6154 66.5246 92.7766 66.2269 92.8954C66.6331 93.029 66.9883 93.2581 67.2924 93.5826C67.5945 93.9071 67.9177 94.4141 68.258 95.1013L69.498 97.5936Z" fill="#009C45"/>
<path fill-rule="evenodd" clip-rule="evenodd" d="M17.6495 107.228L19.2789 93.7744L13.9739 96.7599C14.0244 96.8103 14.1381 96.93 14.3149 97.1189C14.4918 97.3079 14.6055 97.4024 14.656 97.4024L15.4517 116.562C15.6538 116.613 15.8244 116.682 15.9633 116.77C16.1022 116.858 16.298 116.903 16.5507 116.903C16.8538 116.903 17.0748 116.77 17.2138 116.506C17.3527 116.241 17.4221 115.907 17.4221 115.504C17.4221 115.252 17.4411 114.893 17.479 114.427C17.5169 113.961 17.5611 113.489 17.6117 113.01C17.6622 112.531 17.7127 112.122 17.7632 111.782C17.8138 111.442 17.8643 111.284 17.9148 111.309L22.0073 118.376C22.4872 118.956 22.8978 119.372 23.2388 119.623C23.5798 119.875 24.0409 120.001 24.6219 120.001C25.0514 120.001 25.4555 119.945 25.8345 119.831C26.2134 119.718 26.5797 119.523 26.9334 119.246C27.0344 118.943 27.0913 118.641 27.1039 118.339C27.1165 118.036 27.1481 117.734 27.1987 117.432C27.1734 116.852 27.1039 116.392 26.9902 116.052C26.8765 115.712 26.7313 115.378 26.5544 115.051C26.3271 115.227 26.0429 115.448 25.7019 115.712C25.3608 115.977 25.0135 116.109 24.6598 116.109C24.1546 116.109 23.6366 116.071 23.1061 115.996C22.5757 115.92 22.0957 115.643 21.6662 115.164C21.0852 114.182 20.5231 113.073 19.98 111.839C19.4368 110.604 19.0516 109.42 18.8242 108.286C19.3042 107.48 20.0115 106.882 20.9463 106.491C21.881 106.101 22.8283 105.905 23.7883 105.905C24.1925 106.006 24.4514 106.101 24.565 106.189C24.6787 106.277 24.824 106.434 25.0008 106.661L25.1524 106.888C25.3545 106.208 25.4555 105.628 25.4555 105.15C25.4555 104.746 25.405 104.375 25.304 104.035C25.2029 103.695 25.0135 103.386 24.7356 103.109C24.0788 103.109 23.4851 103.153 22.9546 103.241C22.4241 103.329 21.7546 103.55 20.9463 103.902C20.3652 104.331 19.7779 104.847 19.1842 105.452C18.5905 106.057 18.079 106.649 17.6495 107.228ZM32.8447 109.495C31.4805 109.798 30.3311 110.604 29.3964 111.914C28.7649 112.771 28.4491 113.69 28.4491 114.673C28.4491 115.378 28.5881 115.876 28.8659 116.166C29.1438 116.455 29.5606 116.6 30.1164 116.6C30.8995 116.6 31.5311 116.399 32.011 115.996C32.3394 115.744 32.6553 115.485 32.9584 115.221C33.2615 114.956 33.5521 114.66 33.8299 114.333C33.931 114.937 34.0763 115.41 34.2657 115.75C34.4552 116.09 34.6825 116.342 34.9478 116.506C35.213 116.67 35.5099 116.764 35.8383 116.789C36.1667 116.814 36.5204 116.827 36.8993 116.827H37.0509C38.4656 116.827 39.6529 116.531 40.6128 115.939C41.5728 115.347 42.116 114.32 42.2423 112.859C41.3581 113.388 40.5055 113.772 39.6844 114.012C38.8634 114.251 38.1119 114.371 37.4298 114.371C37.1014 114.371 36.8361 114.27 36.634 114.068C36.1288 113.564 35.8762 112.947 35.8762 112.216V109.647L34.2089 110.818C34.2089 109.936 33.7541 109.495 32.8447 109.495ZM31.0258 114.408C30.8743 114.459 30.7353 114.484 30.609 114.484C30.4069 114.484 30.2806 114.383 30.2301 114.182C30.2301 113.904 30.3185 113.608 30.4953 113.294C30.6722 112.979 30.8806 112.683 31.1206 112.405C31.3606 112.128 31.6258 111.889 31.9163 111.687C32.2068 111.486 32.4658 111.36 32.6931 111.309C32.9963 111.184 33.2363 111.121 33.4131 111.121C33.691 111.121 33.8299 111.259 33.8299 111.536C33.8299 111.788 33.7163 112.078 33.4889 112.405C32.6047 113.464 31.7837 114.131 31.0258 114.408ZM44.1369 109.798C44.0359 109.999 43.9095 110.22 43.758 110.459C43.6064 110.698 43.5307 110.969 43.5307 111.272C43.5307 111.473 43.5622 111.681 43.6254 111.895C43.6885 112.109 43.758 112.298 43.8338 112.462C43.9095 112.626 43.9854 112.771 44.0612 112.897C44.1369 113.023 44.1875 113.098 44.2127 113.123C44.3138 112.997 44.4591 112.815 44.6485 112.576C44.8379 112.336 45.0464 112.103 45.2737 111.876C45.5011 111.65 45.7284 111.448 45.9558 111.272C46.1832 111.095 46.3852 111.007 46.5621 111.007C46.7642 111.007 46.9095 111.095 46.9979 111.272C47.0863 111.448 47.1305 111.612 47.1305 111.763C47.1305 112.368 46.9221 112.947 46.5053 113.501C46.0884 114.056 45.5895 114.484 45.0085 114.786L44.3264 116.411L46.2589 115.996C46.7894 116.147 47.0547 116.575 47.0547 117.28C47.0547 118.263 46.7705 119.057 46.2021 119.661C45.6337 120.266 44.9958 120.732 44.2885 121.06C43.5811 121.387 42.9054 121.608 42.2612 121.721C41.617 121.834 41.2318 121.891 41.1055 121.891C40.2718 121.891 39.6529 121.702 39.2487 121.324C38.8445 120.946 38.5414 120.594 38.3393 120.266C38.314 120.19 38.2761 120.127 38.2256 120.077C38.2256 120.556 38.3393 121.223 38.5666 122.08C38.794 122.886 39.1792 123.422 39.7224 123.686C40.2655 123.951 40.9034 124.083 41.636 124.083C42.4444 124.083 43.2654 123.9 44.099 123.535C44.9327 123.17 45.6842 122.691 46.3537 122.099C47.0231 121.507 47.5726 120.827 48.002 120.058C48.4315 119.29 48.6462 118.49 48.6462 117.658C48.6462 117.054 48.4947 116.443 48.1915 115.826C47.8884 115.208 47.5094 114.761 47.0547 114.484C47.2821 114.358 47.4905 114.169 47.6799 113.917C47.8694 113.665 48.0399 113.375 48.1915 113.048C48.3431 112.72 48.4568 112.387 48.5325 112.046C48.6083 111.706 48.6462 111.385 48.6462 111.083C48.6462 110.352 48.4315 109.798 48.002 109.42C47.5726 109.042 47.0421 108.853 46.4105 108.853C45.7537 108.853 44.9958 109.168 44.1369 109.798ZM54.9744 109.495C53.6102 109.798 52.4608 110.604 51.5261 111.914C50.8945 112.771 50.5788 113.69 50.5788 114.673C50.5788 115.378 50.7177 115.876 50.9956 116.166C51.2735 116.455 51.6903 116.6 52.2461 116.6C53.0292 116.6 53.6608 116.399 54.1407 115.996C54.4691 115.744 54.7849 115.485 55.088 115.221C55.3912 114.956 55.6817 114.66 55.9596 114.333C56.0607 114.937 56.2059 115.41 56.3954 115.75C56.5849 116.09 56.8122 116.342 57.0775 116.506C57.3427 116.67 57.6395 116.764 57.9679 116.789C58.2963 116.814 58.65 116.827 59.029 116.827H59.1805C60.5952 116.827 61.7826 116.531 62.7425 115.939C63.7025 115.347 64.2456 114.32 64.3719 112.859C63.4877 113.388 62.6352 113.772 61.8141 114.012C60.9931 114.251 60.2415 114.371 59.5595 114.371C59.2311 114.371 58.9658 114.27 58.7637 114.068C58.2585 113.564 58.0059 112.947 58.0059 112.216V109.647L56.3386 110.818C56.3386 109.936 55.8838 109.495 54.9744 109.495ZM53.1555 114.408C53.0039 114.459 52.865 114.484 52.7387 114.484C52.5366 114.484 52.4103 114.383 52.3598 114.182C52.3598 113.904 52.4482 113.608 52.625 113.294C52.8018 112.979 53.0102 112.683 53.2503 112.405C53.4902 112.128 53.7555 111.889 54.046 111.687C54.3365 111.486 54.5954 111.36 54.8228 111.309C55.126 111.184 55.366 111.121 55.5428 111.121C55.8207 111.121 55.9596 111.259 55.9596 111.536C55.9596 111.788 55.8459 112.078 55.6186 112.405C54.7344 113.464 53.9134 114.131 53.1555 114.408ZM73.7695 108.286C73.3652 108.286 72.8095 108.425 72.1022 108.702L71.0412 111.461C70.637 111.687 70.2707 111.839 69.9423 111.914C69.6139 111.99 69.3359 112.028 69.1086 112.028C68.957 112.028 68.7107 111.983 68.3696 111.895C68.0287 111.807 67.7697 111.738 67.5929 111.687L67.896 108.475C67.896 108.475 67.8391 108.519 67.7255 108.607C67.6118 108.696 67.4287 108.828 67.176 109.004C66.9487 109.181 66.715 109.319 66.475 109.42C66.235 109.521 66.0897 109.596 66.0392 109.647V116.827C66.5698 116.55 66.9171 116.191 67.0813 115.75C67.2455 115.309 67.3908 114.761 67.5171 114.106L67.5929 113.653C67.795 113.703 68.0476 113.791 68.3507 113.917C68.6539 114.043 68.9191 114.106 69.1465 114.106C69.4749 114.106 69.7717 114.037 70.037 113.898C70.3022 113.76 70.5359 113.627 70.738 113.501L70.8517 113.426C71.5085 114.786 72.1906 115.687 72.8979 116.128C73.6053 116.569 74.4768 116.789 75.5125 116.789C76.5735 116.789 77.3377 116.506 77.8051 115.939C78.2725 115.372 78.5061 114.635 78.5061 113.728C77.9251 114.182 77.4325 114.459 77.0283 114.56C76.6241 114.66 76.1315 114.711 75.5504 114.711C74.4894 114.711 73.7315 114.604 73.2769 114.389C72.8222 114.175 72.5948 113.816 72.5948 113.312C72.5948 112.96 72.639 112.569 72.7274 112.141C72.8158 111.713 72.9169 111.272 73.0306 110.818C73.1442 110.365 73.2705 109.918 73.4095 109.477C73.5484 109.036 73.6684 108.639 73.7695 108.286ZM86.5016 108.324L86.3879 108.589C86.2112 108.992 86.0532 109.244 85.9143 109.344C85.7754 109.445 85.6174 109.495 85.4406 109.495C85.3901 109.47 85.2953 109.407 85.1564 109.307C85.0175 109.206 84.8533 109.099 84.6638 108.985C84.4743 108.872 84.2849 108.771 84.0954 108.683C83.9059 108.595 83.7354 108.551 83.5838 108.551H83.4323C83.1544 108.551 82.9334 108.689 82.7692 108.966C82.6049 109.244 82.5228 109.521 82.5228 109.798C82.5228 110.251 82.687 110.61 83.0154 110.875C83.3438 111.139 83.7354 111.284 84.1902 111.309C84.1396 111.813 83.9375 112.342 83.5838 112.897C83.2049 113.426 82.8512 113.69 82.5228 113.69C81.9418 113.69 81.6008 113.01 81.4997 111.65V111.158C81.4997 110.932 81.5124 110.78 81.5376 110.705L83.0154 98.914L80.0598 101.824V104.658C80.0598 105.565 80.085 106.447 80.1356 107.304C80.1861 108.16 80.2366 109.029 80.2872 109.911V110.591C80.4387 112.582 80.5903 113.879 80.7418 114.484C81.045 115.744 81.6513 116.373 82.5607 116.373C83.1418 116.373 83.6281 116.159 84.0196 115.731C84.4112 115.303 84.7207 114.793 84.948 114.2C85.1754 113.608 85.3396 113.016 85.4406 112.424C85.5417 111.832 85.5922 111.385 85.5922 111.083C85.5922 110.957 85.6427 110.875 85.7438 110.837C85.8448 110.799 85.9585 110.736 86.0848 110.648C86.2111 110.56 86.3248 110.415 86.4258 110.214C86.5269 110.012 86.5774 109.672 86.5774 109.193C86.5774 109.118 86.5711 109.004 86.5585 108.853C86.5458 108.702 86.5269 108.526 86.5016 108.324Z" fill="#009C45"/>
</svg>
