<svg width="24" height="24" viewBox="0 0 24 24" fill="none" xmlns="http://www.w3.org/2000/svg">
<path d="M18.9238 21H18.8062C5.20732 20.2177 3.27649 8.73923 3.00659 5.23615C2.98484 4.96379 3.01703 4.6898 3.10132 4.4299C3.1856 4.17 3.32032 3.92929 3.49775 3.72156C3.67519 3.51383 3.89186 3.34317 4.13534 3.21935C4.37882 3.09553 4.64433 3.02099 4.91666 3H8.72987C9.00708 2.99973 9.27798 3.08274 9.50748 3.23827C9.73699 3.39379 9.91452 3.61468 10.0171 3.87231L11.069 6.46154C11.1703 6.71323 11.1954 6.98913 11.1413 7.25499C11.0872 7.52084 10.9561 7.76493 10.7645 7.95692L9.29043 9.44539C9.52069 10.7544 10.1473 11.961 11.0855 12.902C12.0238 13.8431 13.2283 14.4731 14.5362 14.7069L16.0379 13.2185C16.2328 13.0289 16.4791 12.9009 16.7461 12.8504C17.0132 12.7999 17.2892 12.8292 17.5397 12.9346L20.1487 13.98C20.4024 14.0858 20.6188 14.2648 20.7704 14.4942C20.922 14.7235 21.0019 14.9928 21 15.2677V18.9231C21 19.4739 20.7812 20.0022 20.3919 20.3917C20.0025 20.7812 19.4744 21 18.9238 21ZM5.08275 4.38462C4.89921 4.38462 4.72318 4.45756 4.5934 4.58739C4.46361 4.71722 4.3907 4.89331 4.3907 5.07692V5.13231C4.70904 9.23077 6.7506 18.9231 18.8823 19.6154C18.9732 19.621 19.0643 19.6086 19.1505 19.5789C19.2366 19.5492 19.316 19.5028 19.3841 19.4424C19.4523 19.3819 19.5079 19.3086 19.5476 19.2266C19.5874 19.1446 19.6106 19.0556 19.6159 18.9646V15.2677L17.0068 14.2223L15.0206 16.1954L14.6884 16.1538C8.66758 15.3992 7.85096 9.37615 7.85096 9.31385L7.80944 8.98154L9.77487 6.99462L8.73679 4.38462H5.08275Z" fill="#2F4237"/>
</svg>
